<?xml version="1.0" encoding="UTF-8"?>
<!-- Generator: Adobe Illustrator 19.0.0, SVG Export Plug-In . SVG Version: 6.00 Build 0)  -->
<svg width="16" height="16" version="1.1" viewBox="0 0 16 16" xml:space="preserve" xmlns="http://www.w3.org/2000/svg">
<path transform="matrix(.97179 0 0 .97184 .22534 .22525)" d="m6.1328 1.8262c-0.2038 0-0.38163 0.14471-0.42188 0.34375l-1.6465 8.1504h-0.86719c-0.40237 0-0.75496 0.23356-0.99414 0.58398-0.23918 0.35043-0.37695 0.8212-0.37695 1.3438 0 0.52243 0.13773 0.99375 0.37695 1.3438 0.23923 0.35 0.59192 0.58203 0.99414 0.58203h6.7012c1.0893 0 2.039-0.8363 2.3262-2.0078l1.9375-7.9063c0.03233-0.13225 0.0012-0.27483-0.08984-0.38086l-1.6309-1.9023c-0.080823-0.094579-0.20001-0.15039-0.32617-0.15039zm0.35352 0.85742h5.082l-0.33398 1.3633c-0.08041 0.27541 0.14261 0.53906 0.41602 0.53906h1.5469l-1.8086 7.375c-0.19856 0.81046-0.8197 1.3555-1.4902 1.3555h-0.16406c-0.043523 0-0.14188-0.04908-0.23633-0.19336-0.065937-0.10073-0.10386-0.27964-0.14453-0.44727h1.2656c0.23397 0 0.42969-0.19201 0.42969-0.42773 0-0.52103-0.12973-0.98952-0.35742-1.3398s-0.56695-0.58789-0.95703-0.58789h-4.791zm5.8477 0.48828 0.47656 0.55664h-0.61328zm-9.1367 8.0078h5.4609c-0.14188 0.31009-0.24023 0.66421-0.24023 1.0684-1.98e-5 0.40407 0.098343 0.75824 0.24023 1.0684h-5.4609c-0.070944 0-0.20426-0.07459-0.31641-0.26172-0.11215-0.18713-0.19727-0.46956-0.19727-0.80664 0-0.33722 0.085125-0.61956 0.19727-0.80664 0.11214-0.18708 0.24542-0.26172 0.31641-0.26172zm6.5371 0c0.043934 0 0.14045 0.0497 0.23438 0.19336 0.065496 0.10018 0.104 0.27804 0.14453 0.44531h-0.75977c0.040661-0.16718 0.078748-0.34512 0.14453-0.44531 0.094335-0.14368 0.19231-0.19336 0.23633-0.19336z" fill="#8eef97" stroke-width=".02449"/>















</svg>
